# xmcd
#
# Track frame offsets: 
#        150
#        16420
#        28662
#        47614
#        62212
#        73215
#        87765
#        102234
#        120244
#        137514
#        151250
#        162264
#        176074
#
# Disc length: 2498 seconds
#
# Revision: 0
# Processed by: cddbd v1.5.2PL0 Copyright (c) Steve Scherf et al.
# Submitted via: ExactAudioCopy v1.3
#
DISCID=a409c00d
DTITLE=Peão Dourado e Mulato - No delírio da paixão
DYEAR=1900
DGENRE=Country
TTITLE0=No delírio da paixão
TTITLE1=Tem viola no pedaço
TTITLE2=Amor e solidão
TTITLE3=Muito caipira
TTITLE4=Lamento de um bóia fria
TTITLE5=Carro forte
TTITLE6=Eu e achuva
TTITLE7=part. Araújo do Berrante - Sonho de boiadeiro
TTITLE8=Grande missão
TTITLE9=tempos de carreiro
TTITLE10=Não dou moleza
TTITLE11=A carta da mala amarela
TTITLE12=Por cima e por baixo
EXTD=
EXTT0=
EXTT1=
EXTT2=
EXTT3=
EXTT4=
EXTT5=
EXTT6=
EXTT7=
EXTT8=
EXTT9=
EXTT10=
EXTT11=
EXTT12=
PLAYORDER=
